<svg width="64" height="64" viewBox="0 0 64 64" fill="none" xmlns="http://www.w3.org/2000/svg">
  <rect width="64" height="64" rx="16" fill="url(#grad)"/>
  <path d="M44 22C44 22 41.5 34 32 40C22.5 34 20 22 20 22C20 22 28 20 32 16C36 20 44 22 44 22Z" stroke="white" stroke-width="2.5" stroke-linecap="round" stroke-linejoin="round" fill="none"/>
  <path d="M32 40V48" stroke="white" stroke-width="2.5" stroke-linecap="round"/>
  <path d="M26 46C26 46 29 44 32 44C35 44 38 46 38 46" stroke="white" stroke-width="2.5" stroke-linecap="round" stroke-linejoin="round" fill="none"/>
  <path d="M32 28C32 28 28 30 26 34" stroke="white" stroke-width="2" stroke-linecap="round" fill="none" opacity="0.7"/>
  <path d="M32 24C32 24 35 27 36 31" stroke="white" stroke-width="2" stroke-linecap="round" fill="none" opacity="0.7"/>
  <defs>
    <linearGradient id="grad" x1="0" y1="0" x2="64" y2="64" gradientUnits="userSpaceOnUse">
      <stop stop-color="#50808E"/>
      <stop offset="1" stop-color="#69A297"/>
    </linearGradient>
  </defs>
</svg>
