<svg width="760" height="360" viewBox="0 0 760 360" xmlns="http://www.w3.org/2000/svg" role="img" aria-label="CFG update user">
  <defs>
    <marker id="arrow-update" markerWidth="10" markerHeight="10" refX="9" refY="3" orient="auto">
      <path d="M0,0 L0,6 L9,3 z" fill="#334155"/>
    </marker>
  </defs>
  <style>
    .node { fill: #eff6ff; stroke: #2563eb; stroke-width: 2; }
    .decision { fill: #fff7ed; stroke: #ea580c; stroke-width: 2; }
    .text { font: 13px Arial, sans-serif; fill: #0f172a; text-anchor: middle; dominant-baseline: middle; }
    .edge { stroke: #334155; stroke-width: 2; fill: none; marker-end: url(#arrow-update); }
    .label { font: 12px Arial, sans-serif; fill: #475569; }
  </style>
  <rect class="node" x="310" y="20" width="140" height="42" rx="18"/>
  <text class="text" x="380" y="41">U1 Start update</text>
  <polygon class="decision" points="380,90 500,145 380,200 260,145"/>
  <text class="text" x="380" y="137">U2 Target user</text>
  <text class="text" x="380" y="154">sama dengan login?</text>
  <rect class="node" x="35" y="124" width="190" height="42" rx="8"/>
  <text class="text" x="130" y="145">U3 Return error</text>
  <rect class="node" x="555" y="75" width="160" height="42" rx="8"/>
  <text class="text" x="635" y="96">U4 Validasi input</text>
  <rect class="node" x="555" y="135" width="160" height="42" rx="8"/>
  <text class="text" x="635" y="156">U5 Update data</text>
  <rect class="node" x="555" y="195" width="160" height="42" rx="8"/>
  <text class="text" x="635" y="216">U6 Set role baru</text>
  <rect class="node" x="555" y="255" width="160" height="42" rx="8"/>
  <text class="text" x="635" y="276">U7 Save + U8 success</text>
  <rect class="node" x="310" y="295" width="140" height="42" rx="18"/>
  <text class="text" x="380" y="316">U9 End</text>
  <path class="edge" d="M380 62 L380 89"/>
  <path class="edge" d="M260 145 L226 145"/>
  <path class="edge" d="M500 145 C525 145 525 96 554 96"/>
  <path class="edge" d="M130 166 C130 316 260 316 309 316"/>
  <path class="edge" d="M635 117 L635 134"/>
  <path class="edge" d="M635 177 L635 194"/>
  <path class="edge" d="M635 237 L635 254"/>
  <path class="edge" d="M555 276 C500 276 500 316 451 316"/>
  <text class="label" x="232" y="135">True</text>
  <text class="label" x="510" y="132">False</text>
</svg>
